<svg id="Layer_1" data-name="Layer 1" xmlns="http://www.w3.org/2000/svg" viewBox="0 0 40.87 25.21"><defs><style>.cls-1{isolation:isolate;}.cls-2{fill:#565656;}.cls-3{fill:#231f20;}</style></defs><title>logo-mobile</title><g class="cls-1"><g class="cls-1"><path class="cls-2" d="M29,30.6H26.07V13.69c0-1.34.08-3,.24-4.9h-.07a16.08,16.08,0,0,1-.75,2.44L16.88,30.6H15.43L6.84,11.37a14.72,14.72,0,0,1-.76-2.58H6c.1,1,.14,2.65.14,4.94V30.6H3.3V5.39H7.21L14.94,23a21.91,21.91,0,0,1,1.16,3h.11c.5-1.38.91-2.41,1.21-3.09L25.31,5.39H29Z" transform="translate(-3.3 -5.39)"/></g><g class="cls-1"><path class="cls-3" d="M44.17,30.6H31.09V5.39h3V27.93H44.17Z" transform="translate(-3.3 -5.39)"/></g></g></svg>