<?xml version="1.0" standalone="no"?>
<!DOCTYPE svg PUBLIC "-//W3C//DTD SVG 20010904//EN"
 "http://www.w3.org/TR/2001/REC-SVG-20010904/DTD/svg10.dtd">
<svg version="1.0" xmlns="http://www.w3.org/2000/svg"
 width="1200.000000pt" height="1200.000000pt" viewBox="0 0 1200.000000 1200.000000"
 preserveAspectRatio="xMidYMid meet">
<metadata>
Created by potrace 1.11, written by Peter Selinger 2001-2013
</metadata>
<g transform="translate(0.000000,1200.000000) scale(0.100000,-0.100000)"
fill="#000000" stroke="none">
<path d="M5937 11994 c-1 -1 -81 -5 -177 -8 -170 -6 -232 -10 -335 -21 -27 -3
-72 -8 -100 -10 -51 -5 -113 -13 -156 -19 -13 -3 -46 -8 -74 -12 -27 -4 -57
-9 -65 -10 -8 -2 -35 -6 -59 -9 -25 -3 -48 -8 -51 -10 -4 -3 -25 -7 -46 -9
-191 -25 -832 -207 -1039 -296 -11 -5 -92 -39 -179 -76 -260 -109 -558 -263
-800 -412 -107 -66 -361 -236 -376 -252 -3 -3 -39 -30 -80 -60 -503 -368
-1032 -929 -1395 -1481 -244 -370 -416 -697 -573 -1091 -102 -254 -242 -701
-278 -881 -6 -31 -18 -91 -19 -97 -1 -3 -5 -21 -8 -40 -4 -19 -10 -48 -13 -65
-10 -49 -34 -187 -39 -225 -3 -19 -7 -48 -10 -65 -7 -43 -13 -92 -20 -150 -3
-27 -8 -68 -10 -90 -32 -267 -38 -907 -10 -1108 2 -18 6 -63 10 -102 3 -38 7
-81 9 -95 4 -23 8 -54 22 -175 12 -98 77 -424 113 -570 61 -244 118 -428 220
-708 79 -217 247 -570 390 -819 11 -21 31 -55 42 -75 149 -264 426 -646 669
-925 100 -114 454 -464 570 -564 286 -245 632 -495 885 -639 635 -363 1226
-588 1875 -717 87 -17 95 -18 130 -23 19 -3 46 -7 60 -10 44 -9 174 -28 285
-40 28 -3 66 -8 85 -10 148 -17 243 -20 595 -20 355 0 578 7 640 20 11 2 47 7
80 10 33 3 71 7 85 9 14 2 46 7 71 10 25 4 57 9 70 11 13 2 67 11 119 20 52 9
111 20 130 25 19 5 51 11 70 14 19 2 44 7 55 10 11 3 85 22 165 41 291 72 660
196 910 307 25 11 61 27 80 35 19 9 100 47 180 86 441 215 888 508 1260 827
14 12 52 45 85 73 94 81 451 442 542 547 45 52 114 136 153 185 39 50 78 98
86 108 63 78 314 439 314 452 0 4 11 21 24 38 68 91 288 506 381 717 20 47 45
104 56 127 10 24 19 46 19 49 0 3 7 20 15 37 105 229 289 866 331 1147 3 19 7
42 9 50 2 8 7 35 10 60 3 25 8 56 10 70 17 104 25 164 30 220 4 36 8 79 10 95
15 112 20 277 20 600 0 322 -4 445 -20 571 -2 16 -6 58 -9 94 -4 36 -8 76 -11
90 -2 14 -9 61 -15 105 -135 947 -521 1892 -1088 2664 -56 77 -240 312 -251
321 -4 3 -19 21 -35 40 -100 124 -386 418 -546 561 -815 733 -1817 1232 -2879
1434 -69 13 -144 27 -165 30 -21 3 -48 7 -60 10 -12 2 -43 7 -71 10 -27 3 -63
8 -80 10 -64 9 -188 23 -280 30 -101 8 -543 23 -548 19z"/>
</g>
</svg>
